<svg width="35" height="30" viewBox="0 0 35 30" fill="none" xmlns="http://www.w3.org/2000/svg">
<path d="M35 6.63586C33.6834 7.12806 32.291 7.45516 30.8656 7.60711C32.3677 6.84329 33.4908 5.6338 34.0222 4.20774C32.6157 4.92275 31.0768 5.42626 29.4722 5.69649C28.4883 4.79608 27.2113 4.17009 25.807 3.89985C24.4027 3.62962 22.936 3.72763 21.5976 4.18116C20.2591 4.63469 19.1107 5.42276 18.3016 6.44299C17.4924 7.46323 17.0599 8.66846 17.0603 9.90211C17.0603 10.3896 17.1084 10.8584 17.2266 11.3046C14.3721 11.1847 11.5792 10.5496 9.03066 9.44109C6.4821 8.33253 4.2352 6.7754 2.43687 4.87149C1.51554 6.22497 1.23071 7.82857 1.64037 9.35575C2.05003 10.8829 3.12339 12.2188 4.64187 13.0915C3.50603 13.0654 2.39416 12.8056 1.4 12.334V12.4015C1.4019 13.8217 1.97458 15.1979 3.02163 16.2986C4.06868 17.3993 5.52617 18.1571 7.14875 18.4446C6.53491 18.5833 5.90228 18.6514 5.2675 18.6471C4.8116 18.6541 4.35616 18.6189 3.90906 18.5421C4.37268 19.7628 5.26638 20.8303 6.46711 21.5975C7.66784 22.3648 9.11654 22.7942 10.6138 22.8265C8.07393 24.5291 4.9415 25.4527 1.71719 25.4496C1.12875 25.4496 0.564375 25.4271 0 25.3652C3.28099 27.1775 7.10429 28.1362 11.0075 28.1252C24.2113 28.1252 31.43 18.7502 31.43 10.624C31.43 10.3521 31.4191 10.0896 31.4037 9.82899C32.819 8.96084 34.0377 7.87877 35 6.63586Z" fill="#03A9F4"/>
</svg>
